<svg width="68" height="53" viewBox="0 0 68 53" fill="none" xmlns="http://www.w3.org/2000/svg">
<path d="M62 6.95496H34.3867L28.8867 0.305437C28.7225 0.104799 28.4765 -0.00772145 28.22 0.000412521H6C2.674 0.0339651 -0.00382922 2.78681 4.11044e-06 6.16867V46.8385C-0.000162556 50.2177 2.67667 52.9666 6 53H62C65.3233 52.9666 68.0002 50.2177 68 46.8385V13.1164C68.0002 9.73728 65.3233 6.98851 62 6.95496Z" fill="#FFD2A4"/>
<path d="M27.4766 21.4263L23.3516 36.145H20.375L25.7891 19.0825H27.6406L27.4766 21.4263ZM30.7695 36.145L26.6328 21.4263L26.4336 19.0825H28.3203L33.7578 36.145H30.7695ZM30.8398 29.8052V32.1958H22.8945V29.8052H30.8398ZM41.3633 33.5669V27.2505C41.3633 26.813 41.3008 26.4614 41.1758 26.1958C41.0586 25.9302 40.8828 25.7388 40.6484 25.6216C40.4219 25.4966 40.1367 25.4341 39.793 25.4341C39.4336 25.4341 39.1289 25.5083 38.8789 25.6567C38.6367 25.8052 38.4531 26.0083 38.3281 26.2661C38.2031 26.5161 38.1406 26.8052 38.1406 27.1333H35.4102C35.4102 26.6255 35.5117 26.1372 35.7148 25.6685C35.9258 25.1997 36.2266 24.7817 36.6172 24.4146C37.0078 24.0474 37.4805 23.7583 38.0352 23.5474C38.5898 23.3364 39.207 23.231 39.8867 23.231C40.6992 23.231 41.4219 23.3677 42.0547 23.6411C42.6875 23.9067 43.1836 24.3403 43.543 24.9419C43.9102 25.5356 44.0938 26.3169 44.0938 27.2856V33.2036C44.0938 33.7896 44.1289 34.313 44.1992 34.7739C44.2773 35.2271 44.3828 35.6216 44.5156 35.9575V36.145H41.7383C41.6133 35.8403 41.5195 35.4497 41.457 34.9731C41.3945 34.4966 41.3633 34.0278 41.3633 33.5669ZM41.7266 28.4224L41.7383 30.1919H40.4258C40.0352 30.1919 39.6836 30.2466 39.3711 30.356C39.0586 30.4575 38.793 30.606 38.5742 30.8013C38.3633 30.9888 38.1992 31.2192 38.082 31.4927C37.9727 31.7661 37.918 32.0669 37.918 32.395C37.918 32.7935 37.9727 33.1177 38.082 33.3677C38.1992 33.6177 38.3672 33.8052 38.5859 33.9302C38.8125 34.0474 39.0859 34.106 39.4062 34.106C39.8438 34.106 40.2227 34.0122 40.543 33.8247C40.8711 33.6294 41.1211 33.395 41.293 33.1216C41.4727 32.8481 41.543 32.5981 41.5039 32.3716L42.125 33.5083C42.0625 33.8052 41.9453 34.1177 41.7734 34.4458C41.6094 34.7739 41.3945 35.0864 41.1289 35.3833C40.8633 35.6802 40.543 35.9224 40.168 36.1099C39.793 36.2896 39.3594 36.3794 38.8672 36.3794C38.1562 36.3794 37.5234 36.231 36.9688 35.9341C36.4141 35.6372 35.9766 35.2114 35.6562 34.6567C35.3438 34.0942 35.1875 33.4224 35.1875 32.6411C35.1875 32.0083 35.293 31.4341 35.5039 30.9185C35.7148 30.4028 36.0273 29.9614 36.4414 29.5942C36.8555 29.2192 37.375 28.9302 38 28.7271C38.6328 28.5239 39.3711 28.4224 40.2148 28.4224H41.7266Z" fill="#161722"/>
</svg>
